<?xml version="1.0" standalone="no"?>
<!DOCTYPE svg PUBLIC "-//W3C//DTD SVG 1.1//EN" "http://www.w3.org/Graphics/SVG/1.1/DTD/svg11.dtd" >
<!--
2013-9-30: Created.
-->
<svg>
<metadata>
Created by iconfont
</metadata>
<defs>

<font id="iconfont" horiz-adv-x="1024" >
  <font-face
    font-family="iconfont"
    font-weight="500"
    font-stretch="normal"
    units-per-em="1024"
    ascent="896"
    descent="-128"
  />
    <missing-glyph />
    
    <glyph glyph-name="menu" unicode="&#58920;" d="M92 720l840 0C965.104 720 992 693.136 992 660c0-33.136-26.896-60-60-60L92 600C58.864 600 32 626.864 32 660 32 693.136 58.864 720 92 720zM92 360l840 0c33.104 0 60-26.864 60-60 0-33.104-26.896-60-60-60L92 240C58.864 240 32 266.896 32 300 32 333.136 58.864 360 92 360zM92 0l840 0c33.104 0 60-26.896 60-60s-26.896-60-60-60L92-120C58.864-120 32-93.104 32-60S58.864 0 92 0z"  horiz-adv-x="1024" />

    
    <glyph glyph-name="minus" unicode="&#58894;" d="M929.17790341 221.43431110999995H103.32235852c-45.61184237 0-82.57778725 36.97201303-82.57778727 82.58385541V469.18951822c0 45.61184237 36.96594489 82.58506903 82.57778727 82.58506903h825.85433126c45.61184237 0 82.59356445-36.97201303 82.59356444-82.5838554v-165.1713517c0-45.613056-36.98172208-82.58628267-82.59356444-82.58628267z"  horiz-adv-x="1024" />

    
    <glyph glyph-name="plus" unicode="&#58893;" d="M929.17778447 221.43336325999996L681.42200695 221.43336325999996l0-247.75577751c0-45.60310909-36.96559172-82.57739404-82.57739403-82.57739404L433.6736799-108.89980829000001c-45.61180231 0-82.59353895 36.9730434-82.59353895 82.57739404L351.08014217 221.43336325999996 103.32312189 221.43336325999996c-45.61180231 0-82.57739404 36.9730434-82.57739404 82.58484573L20.74572906 469.18914079c0 45.61180231 36.96559172 82.58484573 82.57739404 82.58484572l247.75577752 0L351.0788994 799.53969881c0 45.60310909 36.98173664 82.57739404 82.59353897 82.57739403l165.17093178 0c45.61180231 0 82.57739404-36.9730434 82.57739404-82.57739403l0-247.76447076L929.17778447 551.77522805c45.61180231 0 82.59353895-36.9730434 82.59353895-82.58484572l0-165.17093179C1011.77132222 258.40640546 974.78958558 221.43336325999996 929.17778447 221.43336325999996z"  horiz-adv-x="1024" />

    
    <glyph glyph-name="round" unicode="&#58892;" d="M512 896C228.072727 896 0 667.927273 0 384s228.072727-512 512-512 512 228.072727 512 512S795.927273 896 512 896z"  horiz-adv-x="1024" />

    
    <glyph glyph-name="hide" unicode="&#59195;" d="M169.47172693 143.86080427000002c-18.64936107-18.64936107-19.96008107-47.50923093-2.55808853-63.50219947 16.55657813-15.21527467 44.16252587-12.29236907 62.06477653 5.61206613l580.9831936 580.9831936c17.93938773 17.93938773 20.90379947 45.63490133 5.62080427 62.19147947-16.0038912 17.33864107-44.81788587 16.0104448-63.4454016-2.61925547L169.47172693 143.86080427000002zM538.09861973 512.4658517299999l-154.56447146-154.56447146C395.6342784 298.01676799999996 448.5480448 252.928 512 252.928c72.38888107 0 131.072 58.68311893 131.072 131.072 0 63.4519552-45.088768 116.3657216-104.97338027 128.46585173zM316.932096 408.69614933c11.13238187 88.83623253 81.53552213 159.2393728 170.37175467 170.37175467l119.71242666 119.71242667C574.9932032 705.87787947 543.2541184 709.49546667 512 709.49546667c-66.6107904 0-135.4170368-16.22234453-204.50945707-48.2148352-54.02350933-25.0150912-108.3834368-59.71203413-161.57026986-103.13181867-44.19966293-36.08193707-80.0915456-72.02843307-105.41902507-99.59287467-5.0069504-5.44822613-10.3415808-11.5474432-15.695872-17.84763733-27.754496-32.6631424-27.64090027-80.63112533 0.1507328-113.2593152 9.1619328-10.75664213 18.8022784-21.659648 27.99916373-31.31528533 20.79238827-21.82785707 47.01989547-47.43277227 77.791232-73.6231424l186.18559147 186.18559146zM999.2077312 440.6427648c-5.95940693 7.01453653-11.94502827 13.8477568-17.5702016 19.9360512-25.2116992 27.28700587-60.42856107 62.3640576-103.55561813 97.5699968-53.1890176 43.41978453-107.54676053 78.118912-161.5724544 103.13181867a589.39364693 589.39364693 0 0 1-20.57611947 9.01993813l-105.83190187-105.83190187C659.82518613 534.25220267 708.608 464.82773333 708.608 384c0-108.58441387-88.02358613-196.608-196.608-196.608-80.82773333 0-150.25220267 48.78281387-180.46866773 118.50437973l-134.69177174-134.69177173c36.7198208-25.8015232 73.76513707-47.40437333 110.6509824-64.48523947C376.5829632 74.72687786999995 445.3892096 58.50453332999996 512 58.50453332999996c66.60860587 0 135.4170368 16.22234453 204.50945707 48.2148352 54.02350933 25.0150912 108.3834368 59.71421867 161.5724544 103.13181867 44.62127787 36.4249088 80.77312 72.71437653 106.13992106 100.37712213a609.48698453 609.48698453 0 0 1 15.14755414 17.2490752c27.71298987 32.63255893 27.557888 80.53937493-0.16165547 113.16538027z"  horiz-adv-x="1024" />

    
    <glyph glyph-name="display-copy" unicode="&#59633;" d="M512 630.09375027C352.21484375 630.09375027 214.7890625 535.62890598 160.43749973 401.57812473 214.7890625 267.52734348 352.21484375 173.0625 512 173.0625s297.24609402 94.46484348 351.56250027 228.51562473C809.24609402 535.62890598 671.78515625 630.09375027 512 630.09375027m0-380.84765625c-89.47265652 0-159.78515625 67.00781277-159.78515625 152.33203071 0 85.32421875 70.31249973 152.33203152 159.78515625 152.33203152 89.50781223 0 159.78515625-67.00781277 159.78515625-152.33203152 0-85.32421875-70.27734402-152.33203152-159.78515625-152.33203071M512 492.98437527c-54.31640625 0-95.87109375-39.62109348-95.87109375-91.40625054s41.5546875-91.40624973 95.87109375-91.40624973c54.35156277 0 95.87109375 39.62109348 95.87109375 91.40624973S566.38671848 492.98437527 512 492.98437527"  horiz-adv-x="1024" />

    
    <glyph glyph-name="display" unicode="&#58923;" d="M512 723.81629667C291.36213333 723.81629667 101.59900445 593.37538333 26.54814777 408.27259221 101.59900445 223.16980109999997 291.36213333 92.72888889000001 512 92.72888889000001s410.44954112 130.44091221 485.45185223 315.54370332C922.44954112 593.37538333 732.63786667 723.81629667 512 723.81629667m0-525.8899911c-123.54749667 0-220.63786667 92.52712334-220.63786667 210.34628664 0 117.81916445 97.09036999 210.34628779 220.63786667 210.34628779 123.5960411 0 220.63786667-92.52712334 220.63786667-210.34628779 0-117.81916445-97.04182557-210.34628779-220.63786667-210.34628664M512 534.4900744500001c-75.00231111 0-132.38272-54.71042333-132.38272-126.21748224s57.38040889-126.2174811 132.38272-126.2174811c75.05085667 0 132.38272 54.71042333 132.38272 126.2174811S587.0994011 534.4900744500001 512 534.4900744500001"  horiz-adv-x="1024" />

    
    <glyph glyph-name="hide11" unicode="&#59348;" d="M748.65777813 775.3955552c22.7555552-13.65333333 27.30666667-40.96 18.20444374-63.7155552L334.50666667-34.70222187000002c-13.65333333-22.7555552-40.96-27.30666667-63.7155552-18.2044448s-27.30666667 40.96-18.2044448 63.7155552l432.3555552 750.93333334c18.2044448 18.2044448 45.51111147 27.30666667 63.71555626 13.65333333z m27.30666667-141.08444373c104.6755552-54.61333333 186.5955552-145.6355552 236.65777707-250.31111147-91.02222187-186.5955552-277.61777813-318.57777813-500.62222187-318.57777813-22.7555552 0-40.96 0-63.7155552 4.55111146l50.06222187 86.47111147h13.65333333c163.84 0 314.02666667 86.47111147 395.94666667 227.5555552-45.51111147 72.81777813-104.6755552 131.98222187-177.49333334 172.94222187l45.51111147 77.3688896zM512 702.5777781300001c31.85777813 0 59.1644448-4.55111147 86.47111147-9.10222293L548.40888853 611.5555552000001H512c-163.84 0-314.02666667-86.47111147-395.94666667-227.5555552 45.51111147-81.92 118.32888853-145.6355552 200.24888854-182.0444448l-45.5111104-77.36888853C157.01333333 179.20000000000005 65.99111147 270.22222187 11.37777813 384c91.02222187 186.5955552 277.61777813 318.57777813 500.62222187 318.57777813z m163.84-241.2088896c13.65333333-22.7555552 18.2044448-50.06222187 18.2044448-77.36888853 0-95.57333333-72.81777813-172.94222187-168.39111147-182.0444448l150.18666667 259.41333333zM512 566.0444448000001h13.65333333L466.48888853 461.36888853c-27.30666667-13.65333333-45.51111147-45.51111147-45.5111104-77.36888853l-59.1644448-104.6755552c-18.2044448 31.85777813-31.85777813 68.26666667-31.85777813 104.6755552 0 100.1244448 81.92 182.0444448 182.0444448 182.0444448z"  horiz-adv-x="1024" />

    
    <glyph glyph-name="home" unicode="&#58891;" d="M136.704 296.057905h-20.62628601c-46.470095 0-73.99618999 23.161905-87.649524 54.19885699-14.628571 33.28-6.777905 77.04381001 31.30514301 116.71161901L408.380952 829.927619A142.750476 142.750476 0 0 0 512 874.22780999c39.326476 0 76.23923799-15.798857 103.619048-44.30019099l348.672-362.959238c38.058667-39.66781001 45.909333-83.480381 31.28076201-116.71161901-13.604571-31.012571-41.155048-54.198857-87.64952403-54.19885699h-20.62628598v-294.76571501c0-82.16380999-21.96723799-107.52-102.083048-107.52h-146.748952a70.753524 70.753524 0 0 0-70.729143 70.77790501V219.72114299999998c0 3.31580999 0.024381 6.09523801 0.12190499 10.92266701 0.073143 3.21828601 0.097524 5.851429 0.09752399 7.94818999h-111.90857199c0-2.09676201 0.024381-4.729905 0.097524-7.972571 0.073143-4.827429 0.121905-7.606857 0.12190501-10.898286v-255.171048a70.753524 70.753524 0 0 0-70.729143-70.77790501H243.516952c-80.920381 0-106.788571 26.67276201-106.788571 107.52v294.76571501zM512 813.275429c-22.723048 0-43.739429-8.996571-59.684571-25.6L103.69218999 424.789333c-21.016381-21.894095-24.137143-39.350857-19.48037998-49.980952 4.827429-10.947048 12.94628601-17.77371399 31.86590398-17.773714h81.57866701v-355.718096c0-47.591619-0.97523799-46.567619 45.860571-46.567619h142.019048c5.38819001 0 9.77676201 4.388571 9.77676201 9.825524V219.72114299999998c0 2.80381001-0.024381 5.26628601-0.12190501 9.728-0.46323801 24.039619 0.04876201 31.329524 6.290286 43.471238 9.728 18.89523799 27.843048 26.624 51.88266701 26.624h117.27238c24.039619 0 42.179048-7.72876199 51.88266699-26.59961899 6.241524-12.14171399 6.753524-19.456 6.290286-43.49561901-0.097524-4.46171399-0.121905-6.92419001-0.12190501-9.728v-255.171048c0-5.436952 4.388571-9.825524 9.77676201-9.825524h146.748952c44.348952 0 41.130667-3.705905 41.130667 46.56761901v355.718096h81.57866701c18.919619 0 27.062857 6.826667 31.865904 17.79809499 4.65676199 10.60571402 1.536 28.062476-19.456 49.956571l-348.64761901 362.93485801A81.846857 81.846857 0 0 1 512 813.29980999z"  horiz-adv-x="1024" />

    
    <glyph glyph-name="arrow" unicode="&#58886;" d="M876.165 381.09399999000004l-371.397 511.72900001-371.397-511.729 182.128-1e-8 0-509.09599999 374.011 0 0 509.096 186.654 0z"  horiz-adv-x="1024" />

    
    <glyph glyph-name="entrance" unicode="&#58885;" d="M968.608343 896H453.465932a92.14189098 92.14189098 0 0 1-91.982108-91.982108v-171.714137a34.35348 34.35348 0 1 1 68.706959 0V804.60376599a22.742536 22.742536 0 0 0 22.68927501 22.68927501h404.785187l-193.23166501-83.24726998a128.625819 128.625819 0 0 1-73.340685-111.15614202v-537.93820899H453.73223799a22.742536 22.742536 0 0 0-22.68927499 22.68927499v171.82065901a34.406741 34.406741 0 0 1-34.35348 34.35347998 34.779569 34.779569 0 0 1-34.35348-34.35348v-171.71413699a92.14189098 92.14189098 0 0 1 91.982108-91.98210699h137.360657v-80.317903a71.68958701 71.68958701 0 0 1 30.83824-62.262353 65.45802601 65.45802601 0 0 1 35.52522603-11.078332 87.721211 87.721211 0 0 1 33.76760697 6.97721898l295.12035799 126.92146001a128.785603 128.785603 0 0 1 73.34068401 111.848539V804.923333A91.55601801 91.55601801 0 0 1 968.608343 896z m22.68927499-91.39623401v-689.20004199a61.037345 61.037345 0 0 0-31.42411299-45.964423l-295.706232-126.921461a18.002289 18.002289 0 0 0-4.633725-1.17174602c0 1.17174699-0.58587301 2.343493-0.585873 4.04785201v687.06959301a60.55799401 60.55799401 0 0 0 31.956725 48.307916l299.807345 128.62582c0-1.75762 0.58587301-3.51524 0.58587299-4.633726zM488.40528501 485.036513l-4.10111401 4.047852-167.66628499 167.66628499a34.61978599 34.61978599 0 1 1-48.89378901-48.89378899l112.913762-112.91376299h-346.19785699a34.406741 34.406741 0 0 1-34.35348-34.35348 34.779569 34.779569 0 0 1 34.35348-34.35347901h346.19785699l-112.913762-112.913763a34.30021801 34.30021801 0 0 1-9.906585-24.44689499 32.59586 32.59586 0 0 1 10.65224101-24.446895 33.980651 33.980651 0 0 1 23.86102199-9.90658501 34.30021801 34.30021801 0 0 1 24.44689501 9.90658501l171.71413699 172.30001099a34.08717399 34.08717399 0 0 1-0.10652201 48.307916z"  horiz-adv-x="1060" />

    
    <glyph glyph-name="group" unicode="&#58890;" d="M605.34153801 244.18461499c-3.54461501 0-29.932308 25.99384601-11.027692 74.83077 40.96 40.96 74.830769 108.307692 74.830769 175.65538401 0 100.82461501-70.892308 153.20615399-145.723077 153.206154-78.37538499 0-145.723077-52.38153801-145.723076-153.206154 0-67.347692 29.932308-134.30153799 70.89230699-175.65538399 14.96615401-40.96-11.027692-70.892308-18.510769-74.83077-82.31384599-29.932308-175.65538501-82.31384599-175.65538501-138.24v-18.51076902c0-70.892308 138.24-89.796923 268.99692302-89.79692299 126.81846199 0 265.05846201 14.96615401 265.05846199 89.79692299v18.51076902c-3.93846199 56.32-100.82461501 112.24615401-183.13846199 138.24zM851.889231 378.48615400999995c-3.54461501 0-25.99384601 7.483077-11.02769301 52.38153799 37.41538501 37.41538501 63.409231 100.82461501 63.40923101 164.23384599 0 93.34153801-59.86461501 145.723077-134.301538 145.723077-52.38153801 0-100.82461501-25.99384601-119.33538501-78.37538399 44.89846201-37.41538501 74.830769-93.34153801 74.830769-168.172308 0-78.37538499-37.41538501-153.20615399-78.37538399-201.649231 63.409231-22.449231 160.689231-70.892308 186.683077-145.72307699 96.88615401 3.54461501 186.683077 25.99384601 186.68307699 82.313847v18.51076899c3.150769 56.32-86.64615399 104.763077-168.56615399 130.75692301z m-672.29538501 0c3.54461501 0 25.99384601 7.483077 11.027692 52.38153799-37.41538501 37.41538501-63.409231 100.82461501-63.40922999 164.23384599 3.54461501 93.34153801 63.409231 145.723077 134.30153799 145.723077 52.38153801 0 100.82461501-25.99384601 119.33538501-78.37538399-44.89846201-37.41538501-74.830769-93.34153801-74.83076901-168.172308 0-78.37538499 37.41538501-153.20615399 78.375384-201.649231-63.409231-22.449231-160.689231-70.892308-186.68307699-145.72307699-96.492308 3.93846199-185.89538501 26.387692-185.89538399 82.313847v18.51076899c0 56.32 89.403077 104.763077 167.77846098 130.75692301z"  horiz-adv-x="1024" />

    
    <glyph glyph-name="help-fill" unicode="&#58974;" d="M512 896c282.8 0 512-229.2 512-512s-229.2-512-512-512S0 101.20000000000005 0 384 229.2 896 512 896z m7.8-255.30000001c-52.2 0-93.10000001-14.8-123.4-44.4-31-29.6-52.70000001-93.10000001-45.8-122.69999999 6.8-29.6 80.4-29.6 80.4 0s5.6 52.90000001 17.6 69.10000001c13.4 19.70000001 35.30000001 28.90000001 66.30000001 28.9 24.00000001 0 43-6.30000001 56.4-19.7 12.70000001-13.4 19.70000001-31.69999999 19.69999999-55 0-17.60000001-6.30000001-34.6-19.00000001-50.10000001l-8.49999998-9.90000001c-45.8-40.90000001-73.30000001-70.50000001-82.50000001-89.59999998-9.90000001-19-14.10000002-42.30000001-14.10000001-69.10000001 0-5.50000001 4.4-9.90000001 9.90000001-9.89999999h61.4c5.50000001 0 9.90000001 4.4 9.90000001 9.89999999 0 16.90000001 3.50000001 31.69999999 10.59999998 45.80000001 6.30000001 12.70000001 15.50000001 24.70000001 28.20000002 35.3 33.90000001 29.6 54.30000001 48.70000001 60.69999999 55.69999999 16.90000001 22.6 26.10000001 51.50000001 26.09999999 86.8 0 43-14.10000002 76.90000001-42.29999999 101.6-28.4 25.30000001-65.8 37.30000001-111.6 37.30000001z m-12.70000001-406.89999999c-15.50000001 0-28.2-4.90000001-38.8-14.8-10.6-9.90000001-15.50000001-22.6-15.49999998-38.10000001s4.90000001-28.2 15.49999998-38.09999999c10.6-9.90000001 23.30000002-15.50000001 38.80000002-15.50000001 15.50000001 0 28.2 4.90000001 38.8 14.80000003 10.6 9.90000001 16.2 23.30000002 16.2 38.79999997 0 15.50000001-5.6 28.2-15.50000001 38.10000001-10.6 9.8-24.00000001 14.8-39.50000001 14.8z"  horiz-adv-x="1024" />

    
    <glyph glyph-name="help-outline" unicode="&#59026;" d="M511.60177799-126.69155599999999C228.97777799-126.69155599999999 0 102.00177800999995 0 384.284444 0 666.4533329999999 228.97777799 895.37422199 511.60177799 895.37422199c282.51022201 0 511.60177801-228.864 511.60177801-511.14666599-0.341333-282.055111-229.26222201-510.691556-511.60177801-510.919112z m0 943.44533401c-239.104 0-432.924444-193.64977799-432.92444499-432.355556 0-238.876444 193.820444-432.355556 432.92444499-432.35555501s432.924444 193.592889 432.924444 432.35555501c-0.39822201 238.59200001-193.93422201 432.01422201-432.92444398 432.355556zM521.84177799 644.835556a170.723556 170.723556 0 0 1-124.13155598-44.487112 162.019556 162.019556 0 0 1-45.96622201-123.16444399h81.00977801c-1.64977799 24.46222201 4.49422201 48.75377799 17.52177799 69.51822198a74.524444 74.524444 0 0 0 66.73066601 29.01333401c20.87822201 1.42222201 41.35822201-5.859556 56.71822199-19.911112a80.839111 80.839111 0 0 0 0-104.84622201L565.248 440.888889a381.781333 381.781333 0 0 1-82.716444-90.624 153.258667 153.258667 0 0 1-14.222223-69.461333v-10.012445h81.57866699v10.012445c0.284444 31.85777799 15.075556 61.781333 40.22044401 81.521777 32.995556 28.78577801 53.36177801 47.50222201 60.871112 55.751111 18.204444 25.372444 27.420444 55.978667 26.28266599 87.04a127.317333 127.317333 0 0 1-42.496 101.944889 161.450667 161.450667 0 0 1-112.01422199 37.489778l-0.91022201 0.227556z m-12.91377798-408.291556a55.296 55.296 0 0 1-38.79822202-14.96177801 54.840889 54.840889 0 0 1 0-76.572444 56.149333 56.149333 0 0 1 38.79822202-15.47377799c14.44977799-0.39822201 28.444444 5.00622201 38.798222 14.96177799a50.06222199 50.06222199 0 0 1 16.27022199 38.79822201 52.33777801 52.33777801 0 0 1-15.53066599 38.28622199 55.580444 55.580444 0 0 1-39.537778 14.96177801z"  horiz-adv-x="1024" />

    
    <glyph glyph-name="location" unicode="&#58975;" d="M512 25.600000000000023A358.4 358.4 0 1 1 512 742.4a358.4 358.4 0 0 1 0-716.8z m0-102.4A460.8 460.8 0 1 0 512 844.8a460.8 460.8 0 0 0 0-921.6zM460.8 896m25.60000001 0l51.19999998 0q25.60000001 0 25.60000001-25.60000001l0-153.59999998q0-25.60000001-25.60000001-25.60000001l-51.2 0q-25.60000001 0-25.59999999 25.60000001l0 153.6q0 25.60000001 25.59999999 25.59999999ZM460.8 76.79999999999995m25.60000001 0l51.19999998 0q25.60000001 0 25.60000001-25.60000001l0-153.59999998q0-25.60000001-25.60000001-25.60000001l-51.2 0q-25.60000001 0-25.59999999 25.60000001l0 153.6q0 25.60000001 25.59999999 25.59999999ZM204.8 409.60000001v-51.20000002a25.60000001 25.60000001 0 0 0-25.60000001-25.59999999H25.59999999a25.60000001 25.60000001 0 0 0-25.59999999 25.59999999v51.2c0 14.08 11.52 25.60000001 25.60000001 25.60000001h153.59999998c14.08 0 25.60000001-11.52 25.60000001-25.60000001zM1024 409.60000001v-51.20000002a25.60000001 25.60000001 0 0 0-25.60000001-25.59999999h-153.59999998a25.60000001 25.60000001 0 0 0-25.60000001 25.59999999v51.2c0 14.08 11.52 25.60000001 25.60000001 25.60000001h153.6c14.08 0 25.60000001-11.52 25.59999999-25.60000001zM512 384m-153.6 0a153.6 153.6 0 1 1 307.2 0 153.6 153.6 0 1 1-307.2 0Z"  horiz-adv-x="1024" />

    
    <glyph glyph-name="building" unicode="&#58960;" d="M1059.599059-30.479059000000007h-49.292549V554.666667c0 53.62949-44.353255 97.520941-98.56502 97.520941h-197.130039v-682.666667h-49.292549V798.479059C665.318902 852.108549 620.965647 896 566.753882 896H172.493804c-54.211765 0-98.585098-43.891451-98.585098-97.520941v-828.958118H24.656314c-14.777725 0-24.636235-9.758118-24.636236-24.375216v-48.770509C0-118.24188200000003 9.838431-128 24.636235-128h1034.962824c14.777725 0 24.636235 9.758118 24.636235 24.375216v48.770509c0 14.617098-9.838431 24.375216-24.636235 24.375216zM320.351373 188.958118c0-14.637176-9.85851-24.395294-24.656314-24.395294H197.130039c-14.777725 0-24.636235 9.758118-24.636235 24.395294v48.750431c0 14.637176 9.838431 24.395294 24.636235 24.395294h98.585098c14.777725 0 24.636235-9.758118 24.636236-24.395294v-48.750431z m0 195.041882c0-14.637176-9.85851-24.375216-24.656314-24.375216H197.130039c-14.777725 0-24.636235 9.738039-24.636235 24.375216v48.77051c0 14.617098 9.838431 24.375216 24.636235 24.375215h98.585098c14.777725 0 24.636235-9.758118 24.636236-24.375215V384z m0 195.041882c0-14.617098-9.85851-24.375216-24.656314-24.375215H197.130039c-14.777725 0-24.636235 9.758118-24.636235 24.375215v48.77051c0 14.617098 9.838431 24.375216 24.636235 24.375216h98.585098c14.777725 0 24.636235-9.758118 24.636236-24.375216v-48.77051z m246.402509-390.083764c0-14.637176-9.838431-24.395294-24.636235-24.395294h-98.585098c-14.757647 0-24.616157 9.758118-24.616157 24.395294v48.750431c0 14.637176 9.838431 24.395294 24.636235 24.395294H542.117647c14.777725 0 24.636235-9.758118 24.636235-24.395294v-48.750431z m0 195.041882c0-14.637176-9.838431-24.375216-24.636235-24.375216h-98.585098c-14.757647 0-24.616157 9.738039-24.616157 24.375216v48.77051c0 14.617098 9.838431 24.375216 24.636235 24.375215H542.117647c14.777725 0 24.636235-9.758118 24.636235-24.375215V384z m0 195.041882c0-14.617098-9.838431-24.375216-24.636235-24.375215h-98.585098c-14.757647 0-24.616157 9.758118-24.616157 24.375215v48.77051c0 14.617098 9.838431 24.375216 24.636235 24.375216H542.117647c14.777725 0 24.636235-9.758118 24.636235-24.375216v-48.77051z m369.643922-390.083764c0-14.637176-9.878588-24.395294-24.656314-24.395294H813.176471c-14.777725 0-24.636235 9.758118-24.636236 24.395294v48.750431c0 14.637176 9.838431 24.395294 24.636236 24.395294h98.585098c14.757647 0 24.616157-9.758118 24.616156-24.395294v-48.750431z m0 195.041882c0-14.637176-9.878588-24.375216-24.656314-24.375216H813.176471c-14.777725 0-24.636235 9.738039-24.636236 24.375216v48.77051c0 14.617098 9.838431 24.375216 24.636236 24.375215h98.585098c14.757647 0 24.616157-9.758118 24.616156-24.375215V384z"  horiz-adv-x="1084" />

    
    <glyph glyph-name="facility" unicode="&#58889;" d="M682.644822 383.99564799999996A171.006546 171.006546 0 0 1 511.996672 554.6437980000001 171.006546 171.006546 0 0 1 341.348523 383.99564799999996 171.006546 171.006546 0 0 1 511.996672 213.34749899999997 171.006546 171.006546 0 0 1 682.644822 383.99564799999996zM1023.99232 456.69903v-148.017942c0-10.035115-7.987132-22.015813-18.687841-24.063795l-123.288552-18.636642c-7.372737-21.299019-15.359869-41.318049-26.009379-60.671484 22.630208-32.665322 46.642804-61.951473 71.320994-91.954419 3.993566-4.71036 6.655943-10.700709 6.655943-16.691058 0-5.990349-1.996783-10.649509-5.990349-15.359869-16.025464-21.299019-105.983099-119.294986-128.664506-119.294986a33.894112 33.894112 0 0 0-17.356653 5.990349l-91.954418 71.986588a402.018983 402.018983 0 0 0-60.671484-25.343784c-4.65916-40.652454-8.703926-83.967286-19.353436-123.954147a24.422192 24.422192 0 0 0-24.012596-18.687841h-147.966742c-12.031898 0-22.681407 8.703926-24.063796 19.96783l-18.636641 122.674158a391.420673 391.420673 0 0 0-60.00589 24.67819l-93.951202-71.320994a25.599782 25.599782 0 0 0-16.691058-5.990349 23.858997 23.858997 0 0 0-16.639858 7.321538c-35.3277 31.999728-82.021703 73.317777-110.027865 112.024647a25.958179 25.958179 0 0 0 0.665594 30.61734c22.681407 30.719739 47.359597 60.00589 69.989805 91.340024a353.686594 353.686594 0 0 0-27.340567 66.047438l-121.957364 17.971048A24.319793 24.319793 0 0 0 0.001024 311.34346600000003V459.259008c0 10.035115 7.987132 22.015813 18.022247 24.063796l123.954146 18.636641c6.655943 21.299019 15.359869 41.318049 26.009379 61.337079a1610.379912 1610.379912 0 0 1-71.320994 91.954418 24.575791 24.575791 0 0 0-6.655943 16.025464c0 5.990349 2.662377 10.649509 5.990349 15.35987 16.025464 22.015813 105.983099 119.294986 128.664506 119.294986a29.695748 29.695748 0 0 0 17.356653-6.655944l91.954418-71.320994a402.018983 402.018983 0 0 0 60.671485 25.343785c4.65916 40.652454 8.703926 83.967286 19.353435 123.954146A24.422192 24.422192 0 0 0 438.013301 895.991296h147.966742c12.031898 0 22.681407-8.703926 24.063796-19.96783l18.636641-122.674157c20.633425-6.655943 40.652454-14.694275 60.00589-24.678191l94.616796 71.320994a22.732607 22.732607 0 0 0 16.025464 5.990349c5.990349 0 11.980698-2.662377 16.639858-6.655943 35.3277-32.665322 82.021703-73.983371 110.027865-113.355837a25.190186 25.190186 0 0 0-0.665594-30.002945c-22.681407-30.61734-47.359597-59.95469-69.989805-91.288824 11.315104-21.350219 20.633425-43.366031 27.340567-65.330644l121.957364-18.687842c11.366303-1.996783 19.353435-12.646293 19.353435-24.012596z"  horiz-adv-x="1024" />

    
    <glyph glyph-name="room" unicode="&#58896;" d="M136.757033 790.115009L553.373996 894.838a36.425997 36.425997 0 0 0 45.530996-36.424997v-949.339916a36.425997 36.425997 0 0 0-43.254996-36.425997l-416.616963 77.404993a59.190995 59.190995 0 0 0-47.807996 56.914995V733.200014a59.190995 59.190995 0 0 0 45.531996 56.914995z m560.041951-828.679927h168.467985a66.020994 66.020994 0 0 1 66.020994 66.019994V742.307014a66.020994 66.020994 0 0 1-66.020994 66.021994H696.798984zM448.650006 462.285038c-25.041998 0-47.807996-34.148997-47.807996-77.403993s20.489998-77.403993 47.807996-77.403993 47.808996 34.148997 47.808995 77.403993-22.765998 77.403993-47.808995 77.403993z"  horiz-adv-x="1024" />

    
    <glyph glyph-name="wenhuaguanli" unicode="&#59084;" d="M240.622 830.777c-67.133 0-121.592-53.568-121.592-119.81v-656.38c0-66.242 54.459-119.81 121.592-119.81h663.014V718.393h-55.895l-1.287-726.434H253.841c-42.33 0-76.688 37.428-76.688 83.471 0 46.142 34.309 83.471 76.688 83.471h537.214V830.777H240.622M287.111 103.55h503.4v-54.36h-503.4v54.36z"  horiz-adv-x="1024" />

    
    <glyph glyph-name="study" unicode="&#58903;" d="M736.56806514 173.76906354000005L311.88562375 173.76906354000005c-64.37620167 0-97.21980131-12.48124245-113.64218311-22.99133383-14.77956153-9.85342862-22.00634027-21.34851357-22.00634027-36.12924018 0-33.82975715 37.11423374-72.25847922 69.95899734-72.25847922l229.913344 0 0-131.37905322L281.34034318-88.98904404999996c-145.50195314 0-232.21166194 73.90013554-232.21166193 197.0685804l0 131.37905323L49.12868011 649.0319758200001c0 136.30518613 104.11824925 247.32071936 232.21166194 247.32071936l455.22772309 0c128.09457778 0 232.21166194-111.01553323 232.21166193-247.32071936l0-227.61386097C968.77972821 284.78343282000003 864.66264291 173.76906354000005 736.56806514 173.76906354000005zM837.40067385 42.39001030999998c48.93881344 0 131.37905323-8.54010425 131.37905322-65.68952718 0-57.14942293-82.44023979-65.68952718-131.37905322-65.68952718l-32.84476359 0 0 131.37905322L837.40067385 42.39001030999998zM771.71114781 140.92429994999998L771.71114781-121.83380651000004 640.33325739-23.299516870000048 508.95420416-121.83380651000004 508.95420416 140.92429994999998Z"  horiz-adv-x="1024" />

    
    <glyph glyph-name="scenery" unicode="&#58895;" d="M987.2 279.36l-69.44 92.8L812.48 512a29.12 29.12 0 0 1-45.76 0l-121.6-145.92L375.36 745.6a28.8 28.8 0 0 1-23.36 12.16 29.12 29.12 0 0 1-23.68-13.76L35.2 277.44000000000005a29.12 29.12 0 0 1 24.64-44.48H64v-2.24h908.48l-1.92 2.24a29.12 29.12 0 0 1 16.64 45.76zM189.76 68.48000000000002a29.12 29.12 0 0 1 0-58.24H832a29.12 29.12 0 1 1 0 58.24zM948.16 156.15999999999997a29.12 29.12 0 0 1-29.12 29.12H102.4a29.12 29.12 0 1 1 0-57.28h816.64a29.12 29.12 0 0 1 29.12 28.16z"  horiz-adv-x="1024" />

    
    <glyph glyph-name="service" unicode="&#58932;" d="M816.6 794.1c-120.5 41.2-199.5-0.7-239.6-34.4-0.1-0.1-0.1-0.3-0.3-0.4l-73.1-73.1-192.4-192.5c-11.3-11.3-29.7-11.3-41.1 0-11.3 11.3-11.3 29.7 0 41.1l212.6 212.6c-34.1 34.1-117.1 93.2-253 46.8C126.1 749.7-89.8 542.5 171.6 286s343.7-329.1 343.7-329.1l7.9-8.8 7.9 8.8s82.3 72.6 343.7 329.1 45.4 463.6-58.2 508.1z"  horiz-adv-x="1024" />

    
    <glyph glyph-name="phone" unicode="&#58963;" d="M784.896-106.49599999999998h-18.944c-128.512 0-377.344 120.832-501.76 245.248-120.832 128-245.248 373.76-245.248 501.76v18.944l11.264 14.848C90.112 764.928 177.152 874.496 252.416 874.496s196.096-117.248 230.4-200.192c30.208-71.68 3.584-113.152-14.848-132.096-26.624-26.624-52.736-41.472-71.68-56.832-9.216-5.632-18.432-11.776-26.624-18.944 0-30.208 56.32-86.528 98.304-128 41.472-41.472 98.304-98.304 128-98.304 3.584 0 11.264 14.848 15.36 22.528 11.264 18.944 30.208 45.056 56.832 71.68 18.944 18.944 45.056 30.208 71.68 30.208 105.472 0 260.096-158.208 260.096-245.248 0-75.264-109.568-162.304-200.192-222.72l-14.848-3.072zM94.208 636.928c3.584-109.568 117.248-335.872 226.304-441.344 109.568-109.568 332.288-222.72 441.344-226.304 105.472 71.68 162.304 132.096 162.304 158.208 0 41.472-120.832 169.984-184.832 169.984-7.168 0-13.824-3.072-18.944-7.68-18.944-18.944-33.792-41.472-45.056-60.416-18.944-30.208-37.888-60.416-79.36-60.416-64 0-124.416 60.416-181.248 120.832C354.304 346.624 293.888 410.624 293.888 471.04c0 45.568 30.208 60.416 60.416 79.36 22.016 12.288 42.496 27.648 60.416 45.056 11.264 11.264 11.264 26.624 0 49.152-30.208 68.096-132.096 154.624-162.304 154.624-22.528 0-86.528-56.832-158.208-162.304z"  horiz-adv-x="1024" />

    
    <glyph glyph-name="mail" unicode="&#58883;" d="M1010.00760889 662.28906667c0 30.97144889-25.15057778 56.23921778-56.24035556 56.23921778H67.20625778c-31.08977778 0-56.24035555-25.15057778-56.24035556-56.24035556v-560.65137778c0-30.97258667 25.15057778-56.24035555 56.24035556-56.24035556h886.67932444c30.97258667 0 56.24035555 25.15057778 56.24035556 56.24035556v560.65137778zM553.56871111 335.79349333000005l-0.23324444-0.23324444c-22.82154667-20.95786667-58.56824889-20.95786667-81.27374222 0.11605333L103.41717333 667.2952888899999h820.54257778l-370.39217778-331.49952z m-207.61031111 43.89660445L62.19776 128.53475555V634.92551111l283.76177778-255.23313778z m38.89038222-34.46556445l52.51413333-47.04142222c20.60970667-18.97813333 47.27466667-29.10890667 75.2184889-29.10890666h0.1171911c27.94496 0 54.60992 10.12963555 75.10243556 28.99285333l55.65781334 49.71975111L926.87018667 96.74524444999997H104.11576889l280.73301333 248.47928888z m296.56974223 36.79573334l277.35608888 248.12999111v-493.69998223L681.41852445 382.02026666999996z"  horiz-adv-x="1024" />

    
    <glyph glyph-name="fuwu" unicode="&#58884;" d="M838.087 241.09500000000003c-9.10222 0-17.9769 4.32355-23.4382 12.5155-8.76089 12.9707-5.34755 30.4925 7.62311 39.2533 68.3805 46.1938 142.109 150.414 142.109 238.023 0 140.402-114.233 254.635-254.521 254.635-67.0151 0-130.275-26.0551-178.403-73.1591-11.0365-10.8089-28.672-10.8089-39.7085 0-48.0142 47.2178-111.275 73.1591-178.29 73.1591-140.402 0-254.635-114.233-254.635-254.635 0-97.0525 53.9307-184.32 140.743-227.783 13.9947-6.94045 19.5698-24.0071 12.6293-38.0018-7.05422-13.9947-24.0071-19.5698-38.0018-12.6293C68.153 305.60699999999997 2.275 412.216 2.275 530.887c0 171.577 139.605 311.182 311.182 311.182 73.0453 0 142.45-25.2587 198.087-71.4525 55.7511 46.3075 125.155 71.4525 198.201 71.4525 171.577 0 311.182-139.605 311.182-311.182 0-107.634-84.992-229.49-167.026-284.899-4.66489-3.18578-10.1262-4.89245-15.8151-4.89245ZM792.69 144.611c-23.3245 0-45.1698 9.10222-61.6675 25.6l-107.975 107.861c-11.0365 11.0365-11.0365 29.0133 0 40.0498 11.0365 11.0365 29.0133 11.0365 40.0498 0l107.975-107.861c11.6053-11.6053 31.744-11.6053 43.3493 0 11.9467 11.9467 11.9467 31.4027 0 43.3493L504.491 554.6669999999999c-11.264 10.9227-11.4915 28.7858-0.568889 40.0498 10.9227 11.1502 28.8995 11.4915 40.0498 0.568889l310.158-301.397c34.2471-34.2471 34.2471-89.6569 0.227555-123.677-16.4978-16.6115-38.3431-25.6-61.6675-25.6ZM719.758 49.948999999999955c-22.3005 0-44.6009 8.53333-61.6675 25.4862L603.022 130.731c-11.0365 11.0365-11.0365 29.0133 0 40.0498 11.0365 11.0365 29.0133 11.0365 40.0498 0l55.1822-55.1822c11.9467-11.9467 31.4027-11.9467 43.3493 0 5.80267 5.80267 8.98845 13.5395 8.98845 21.6178 0 8.192-3.18578 15.9289-8.98845 21.6178L595.171 305.26599999999996c-11.0365 11.0365-11.0365 29.0133 0 40.0498 11.0365 11.0365 29.0133 11.0365 40.0498 0l146.318-146.432c16.4978-16.4978 25.6-38.3431 25.6-61.6675s-9.10222-45.1698-25.6-61.6675c-17.0667-17.0667-39.3671-25.6-61.7813-25.6ZM235.975 176.58299999999997c-23.2107 0-45.1698 9.10222-61.6675 25.4862-34.0195 34.0195-34.0195 89.3155 0 123.335l92.9565 92.9565c33.1093 32.9955 90.4533 32.8818 123.335 0 16.4978-16.4978 25.6-38.3431 25.6-61.6675s-9.10222-45.1698-25.6-61.6675l-92.9565-92.9565c-16.4978-16.4978-38.3431-25.4862-61.6675-25.4862ZM328.931 387.413c-8.192 0-15.8151-3.18578-21.6178-8.98845l-92.9565-92.9565c-11.9467-11.9467-11.9467-31.4027 0-43.3493 11.6053-11.6053 31.744-11.6053 43.3493 0l92.9565 92.9565c5.80267 5.80267 8.98845 13.5395 8.98845 21.6178s-3.18578 15.8151-8.98845 21.6178c-5.91645 5.91645-13.5395 9.10222-21.7315 9.10222ZM319.261 93.18399999999997c-23.3245 0-45.1698 9.10222-61.6675 25.4862-34.0195 34.0195-34.0195 89.3155 0 123.335l92.9565 92.9565c33.1093 32.9955 90.4533 32.8818 123.449 0 34.0195-34.0195 34.0195-89.3155 0-123.335l-93.0702-92.9565c-16.384-16.384-38.3431-25.4862-61.6675-25.4862Zm92.9565 210.83c-8.192 0-15.8151-3.18578-21.6178-8.98845l-92.9565-92.9565c-11.9467-11.9467-11.9467-31.4027 0-43.3493 11.6053-11.6053 31.744-11.6053 43.3493 0l93.0702 92.9565c11.9467 11.9467 11.9467 31.4027 0 43.3493-5.91645 5.80267-13.5395 8.98845-21.8453 8.98845ZM402.659 9.784999999999968c-23.2107 0-45.1698 9.10222-61.6675 25.4862-34.0195 34.0195-34.0195 89.4293 0 123.449l93.0702 92.9565c32.8818 32.8818 90.2258 32.9955 123.335 0 34.0195-34.0195 34.0195-89.3155 0-123.335l-93.0702-92.9565c-16.4978-16.4978-38.3431-25.6-61.6675-25.6Zm92.9565 210.944c-8.192 0-15.8151-3.18578-21.6178-8.98845l-93.0702-92.9565c-11.9467-11.9467-11.9467-31.4027 0-43.3493 11.6053-11.6053 31.744-11.6053 43.3493 0l93.0702 92.9565c11.9467 11.9467 11.9467 31.4027 0 43.3493-5.80267 5.68889-13.5395 8.98845-21.7315 8.98845ZM485.944-73.50099999999998c-23.3245 0-45.1698 9.10222-61.6675 25.4862-34.0195 34.0195-34.0195 89.3155 0 123.335l93.0702 92.9565c32.8818 32.8818 90.3395 32.9955 123.335 0 34.0195-34.0195 34.0195-89.4293 0-123.335l-92.9565-92.9565c-16.4978-16.4978-38.4569-25.4862-61.7813-25.4862Zm93.0702 210.83c-8.192 0-15.8151-3.18578-21.6178-8.98845l-93.0702-92.9565c-11.9467-11.9467-11.9467-31.4027 0-43.3493 11.6053-11.6053 31.744-11.4915 43.3493 0l92.9565 92.9565c11.9467 11.9467 11.9467 31.4027 0 43.3493-5.80267 5.80267-13.4258 8.98845-21.6178 8.98845ZM379.677 440.661c-23.3245 0-45.1698 9.10222-61.6675 25.4862-34.0195 34.0195-34.0195 89.3155 0 123.335l174.307 163.499c11.3778 10.6951 29.2409 10.1262 39.936-1.25155 10.6951-11.3778 10.1262-29.3547-1.25155-40.0498L357.262 548.9780000000001c-11.264-11.264-11.264-30.72 0.682667-42.6667 11.6053-11.6053 31.744-11.6053 43.3493 0l104.562 90.112c11.8329 10.1262 29.696 8.87467 39.936-2.95822 10.1262-11.8329 8.87467-29.696-2.95822-39.936l-103.083-88.7467c-14.9049-15.0187-36.7502-24.1209-60.0747-24.1209Z"  horiz-adv-x="1024" />

    
    <glyph glyph-name="back" unicode="&#58911;" d="M512-128C229.23264-128 0 101.23263999999995 0 384S229.23264 896 512 896s512-229.23264 512-512-229.23264-512-512-512z m75.3664 671.92832h-126.11584v55.6032c0 18.80064-19.92704 31.04768-36.59776 22.20032L243.712 525.76256c-17.96096-9.50272-17.67424-35.40992 0.43008-44.58496l180.9408-91.7504c16.60928-8.4992 36.16768 3.76832 36.16768 22.40512V467.7632h126.1568c72.2944 0 130.78528-55.84896 130.78528-124.14976 0-68.28032-58.51136-124.12928-130.7648-124.12928H296.38656a37.888 37.888 0 0 1-37.74464-38.0928 37.888 37.888 0 0 1 37.74464-38.05184h291.0208c113.62304 0 206.19264 89.7024 206.19264 200.2944 0 110.53056-92.63104 200.27392-206.2336 200.27392v-15.36 15.36z"  horiz-adv-x="1024" />

    
    <glyph glyph-name="portrait" unicode="&#58927;" d="M927.58562133 22.82382222000001h-388.43915378c-53.59388445 0-97.05153422 43.45764978-97.05153422 97.05153423V799.58562133C442.09493333 853.17950578 485.55258311 896.63715555 539.14646755 896.63715555h388.32264534c53.59388445 0 97.05153422-43.45764978 97.05153422-97.05153422v-679.71026488c0.11650845-53.59388445-43.34114133-97.05153422-96.93502578-97.05153423z m24.23375645 752.41153423c0 26.85519645-21.72882489 48.58402133-48.58402133 48.58402133h-339.738624c-26.85519645 0-48.58402133-21.72882489-48.58402134-48.58402133V314.09493333h436.90666667V775.23535645z m0-533.9582009h-436.90666667v-97.05153422c0-26.85519645 21.72882489-48.58402133 48.58402134-48.58402133h339.85513244c26.85519645 0 48.58402133 21.72882489 48.58402133 48.58402133V241.27715554999997h-0.11650844zM733.36604445 119.87535645000003c-26.85519645 0-48.58402133 21.72882489-48.58402134 48.58402133 0 26.85519645 21.72882489 48.58402133 48.58402134 48.58402133 26.85519645 0 48.58402133-21.72882489 48.58402133-48.58402133 0-26.85519645-21.72882489-48.58402133-48.58402133-48.58402133zM269.60418133 749.41125973C241.6246784 733.25153849 206.35174685 709.4663395499999 175.05757867 678.18382222 110.657536 613.78377955 68.10282667 528.10929493 68.10282667 528.10929493a36.46714311 36.46714311 0 0 0-51.5375104 0 36.46714311 36.46714311 0 0 0 0 51.54333582s45.39751538 82.60448711 109.90824106 147.1152128c35.84382293 35.83799751 77.25674951 65.76319147 107.18194347 85.44729316L199.29133511 872.40339911h194.21957689L310.34135893 678.18382222 269.60418133 749.41125973zM102.23980089 459.73048889h242.68708978a36.36811093 36.36811093 0 0 0 36.40888888-36.40888889 36.36811093 36.36811093 0 0 0-36.40888888-36.40888889h-218.45333334c-26.85519645 0-48.58402133-21.72882489-48.58402133-48.58402133v-339.85513245c0-26.85519645 21.72882489-48.58402133 48.58402133-48.58402133h655.36a24.25705813 24.25705813 0 0 1 24.23375645 24.23375645 36.36811093 36.36811093 0 0 0 36.40888889 36.40888888 36.36811093 36.36811093 0 0 0 36.40888888-36.40888888c0-53.58805902-43.45764978-97.05153422-97.05153422-97.05153423H102.23980089c-53.59388445 0-97.05153422 43.4634752-97.05153422 97.05153423v388.55566222C5.18826667 416.27283911 48.64591645 459.73048889 102.23980089 459.73048889z"  horiz-adv-x="1024" />

    
    <glyph glyph-name="double-arrow-left" unicode="&#58887;" d="M504.917333 428.54400001c-22.954667-24.576-22.954667-64.426667 0-89.00266701L923.562667-109.56799999999998c22.954667-24.576 60.24533299-24.576 83.2 0 22.954667 24.576 22.954667 64.426667 0 89.002667L629.674667 384l377.088 404.48c22.954667 24.576 22.954667 64.426667 0 89.088-22.954667 24.576-60.24533299 24.576-83.2 0L504.917333 428.54400001 504.917333 428.54400001zM519.082667-20.480000000000018L141.909333 384l377.088 404.48c22.954667 24.576 22.954667 64.426667 0 89.088-22.954667 24.576-60.24533299 24.576-83.2 0l-418.645333-449.024c-22.954667-24.576-22.954667-64.426667 0-89.088L435.882667-109.56799999999998c22.954667-24.576 60.24533299-24.576 83.2 0C542.037333-84.99199999999996 542.037333-45.14133300000003 519.082667-20.480000000000018L519.082667-20.480000000000018zM643.75466699-20.480000000000018"  horiz-adv-x="1025" />

    
    <glyph glyph-name="close" unicode="&#58933;" d="M583.168 372.22400000000005L958.464 747.52c18.944 18.944 18.944 50.176 0 69.12l-2.048 2.048c-18.944 18.944-50.176 18.944-69.12 0L512 442.88 136.704 818.688c-18.944 18.944-50.176 18.944-69.12 0l-2.048-2.048c-19.456-18.944-19.456-50.176 0-69.12l375.296-375.296L65.536-3.0720000000000027c-18.944-18.944-18.944-50.176 0-69.12l2.048-2.048c18.944-18.944 50.176-18.944 69.12 0L512 301.05600000000004 887.296-74.24000000000001c18.944-18.944 50.176-18.944 69.12 0l2.048 2.048c18.944 18.944 18.944 50.176 0 69.12L583.168 372.22400000000005z"  horiz-adv-x="1024" />

    
    <glyph glyph-name="indoor" unicode="&#58962;" d="M1035.018157 525.2849140000001C945.036539 602.18247 680.600762 831.268325 661.548532 848.025106A167.10872 167.10872 0 0 1 550.907868 896a149.204214 149.204214 0 0 1-106.279309-47.974894l-90.440709-77.586191a105.82022 105.82022 0 0 1-50.270343 61.518045 93.654338 93.654338 0 0 1-87.915714 1.606815 106.508855 106.508855 0 0 1-57.386236-95.949787v-137.726967l-119.363371-102.606591A109.263394 109.263394 0 0 1 13.772697 464.455503 104.672495 104.672495 0 0 1 10.099978 368.04662599999995a107.197489 107.197489 0 0 1 51.647612-49.122618l86.767989-40.629455 3.443175-304.835687v-4.361354c4.131809-32.136292 26.397669-88.374804 83.55436-96.408877h630.330419c56.927146 8.034073 79.422551 64.50213 83.55436 96.408877v4.361354l2.984084 245.383546a37.874916 37.874916 0 0 1 0 3.902264v64.04304l81.258911 39.711275a110.411119 110.411119 0 0 1 62.20668 78.733916c7.345438 39.481731-13.772697 79.881641-60.829411 120.052007z m14.461332-108.804304c-1.37727-11.706792-17.445416-22.954495-22.954495-24.10222l-107.427034-52.565792a38.563551 38.563551 0 0 1-21.577225-33.972652v-3.213629a27.315848 27.315848 0 0 1 0-5.509079L893.618471-45.134275c-1.37727-6.427258-7.115893-29.840843-20.199955-33.513562H229.544945c-13.313607 3.902264-19.05223 27.545393-20.199955 33.513562L206.590451 295.969514a43.383995 43.383995 0 0 1 0 5.968168 38.563551 38.563551 0 0 1-17.215871 26.856759L183.635956 331.77852499999995l-112.936113 52.565792a37.186281 37.186281 0 0 0-17.674961 15.838602 32.824927 32.824927 0 0 0 2.524995 32.365837 37.645371 37.645371 0 0 0 8.952253 11.018157l137.726967 119.592917a38.104461 38.104461 0 0 1 13.313606 29.152208V755.7480390000001a35.809011 35.809011 0 0 0 17.674961 32.136292 20.659045 20.659045 0 0 0 21.577225 0 38.793096 38.793096 0 0 0 18.363596-34.661287V712.364044a38.334006 38.334006 0 0 1 64.272584-29.840843l153.106479 132.906523 2.065904 1.83636A82.406635 82.406635 0 0 0 550.907868 845.959202a101.229321 101.229321 0 0 0 62.436225-28.234028l2.524995-2.524995C619.771352 812.675185 911.752522 557.880296 1009.997758 474.325936c39.022641-33.743107 39.94082-52.795337 39.481731-57.845326zM550.907868 630.186954a254.106254 254.106254 0 0 1-252.499439-256.172159q0-174.224613 222.199506-369.567362a45.908989 45.908989 0 0 1 59.911231 0Q803.407308 199.331092 803.407308 374.01479500000005a254.106254 254.106254 0 0 1-252.49944 256.172159z m0-573.862363c-130.840619 114.772473-194.195024 219.215423-194.195023 313.099305a194.195024 194.195024 0 1 0 388.390047 0C746.021072 276.228648 682.666667 171.09706300000005 550.907868 57.01322600000003zM550.907868 489.246357a117.297467 117.297467 0 1 1 115.920197-117.297467A116.608832 116.608832 0 0 1 550.907868 489.246357z m56.008967-151.958753a65.420309 65.420309 0 1 0 0 65.420309 66.108944 66.108944 0 0 0 0.91818-65.420309z"  horiz-adv-x="1098" />

    
    <glyph glyph-name="globe" unicode="&#59632;" d="M511.996387 886.134255C234.671784 886.134255 9.862132 661.317378 9.862132 384c0-277.324603 224.809652-502.134255 502.134255-502.134255S1014.137868 106.67539699999998 1014.137868 384C1014.137868 661.317378 789.320991 886.134255 511.996387 886.134255L511.996387 886.134255zM879.994807 253.20211700000004c-0.364863-10.14752-8.399069-20.45399-14.341636-29.922359-6.946843-11.072321-15.472349-21.183716-22.961067-31.941748-9.526169-13.666098-23.073054-44.361532-26.374882-47.66336-3.673915-3.659465-8.536344-6.516955-13.359035-8.698906-44.903408-20.327552-75.699993-56.680167-103.689663-93.773344-28.361758-37.562803-60.028956-69.511776-101.092274-93.253143-9.826007-5.678854-16.65725-16.292387-24.929881-24.56863-3.027277-3.023665-5.982304-6.224342-9.439469-8.713356-9.95967-7.20333-20.46844-3.511353-20.403415 8.456869 0.126438 22.704579 0.184238 45.784859 4.284428 68.008975 7.340605 39.820617 18.062513 79.052395 26.551894 118.685162 3.514965 16.407987 5.624667 33.188062 7.094955 49.899499 1.296888 14.789586-7.495943 25.124956-19.110139 33.397587-0.859776 0.610513-1.835151 1.159613-2.84304 1.473901-34.083962 10.461808-50.560587 38.260016-68.074 65.31766-8.301531 12.820772-16.147887 25.468144-31.576886 33.224187-13.355422 6.701192-13.171185 23.84613-18.727214 36.572977-11.975446 27.451408 8.558019 42.996006 22.332491 60.809257 10.216157 13.225372 21.653341 25.583744 33.061624 37.869865 5.664404 6.101517 3.959303 10.39317-1.333013 15.111099-10.848345 9.67067-27.31052 9.349157-38.892203-0.1156-2.196402-1.799026-7.355055-2.160277-10.071657-0.932026-5.780004 2.615452-10.602695 7.163593-16.270712 10.10417-8.261794 4.288041-17.051012 7.604318-25.334481 11.856234-3.352402 1.715939-6.574755 4.353066-8.803669 7.329768-6.76983 9.031257-13.015847 18.430988-19.471389 27.693445-5.288704 7.604318-12.795484 12.358372-21.942341 9.94522-9.168532-2.416764-16.491075-0.36125-22.997192 5.006929-11.144571 9.186594-23.278967 12.264446-37.866253 10.23422-20.692415-2.879165-39.188429 5.910054-52.977351 18.774176-9.190207 8.568856-12.015184 23.795555-17.238863 36.218952-2.647964 6.27853-4.309716 12.958047-6.936005 21.035603-9.880195-8.489381-16.552487-3.460778-23.018867 1.665364-4.475891 3.547478-8.276244 7.976406-12.99056 11.151796-20.551528 13.832273-17.993876 8.135356-19.388302 6.92878-33.484287 5.017766-18.340676 53.869639 10.790545 81.97491 91.649192 88.39794 162.782982 115.834897 254.656149 133.742073 114.404346 22.292754 195.443618 4.670966 253.633811-22.823792-11.567233-9.421407-23.896705-14.926861-37.656728-15.244761-23.93283-0.570775-45.784859-7.933056-67.033599-17.621788-6.766217-3.081465-15.136386-6.097904-18.828364-11.643096-7.727143-11.617809-19.630339-15.457899-30.839935-21.519678-11.115671-6.014817-22.274691-12.997785-31.056685-21.797841-8.615819-8.619431-12.589572-21.830353-21.541353-29.922359-20.363677-18.384026-31.302335-38.758541-24.536118-66.264136 0.624963-2.543202-2.153052-5.902829-3.356015-8.886757-2.846652 1.813476-6.56753 3.020052-8.377394 5.537967-7.00103 9.732082-14.020123 19.536414-19.825415 29.958484-5.924504 10.62437-14.843773 12.127171-25.482594 10.483483-21.541353-3.323502-33.47345-16.910125-41.406505-35.767389-4.244691-10.093332-3.684753-18.066126 4.226628-25.775206 19.630339-19.135427 39.332929-38.213053 58.457518-57.818105 3.872603-3.97014 8.355719-10.81222 7.369505-15.237536-3.312665-14.912411 1.376364-26.779482 9.847682-38.418966 2.84304-3.890665 3.399365-9.417794 6.372455-13.171185 2.611839-3.283765 7.39118-7.50678 10.758033-7.14553 9.847682 1.051238 19.384689 4.656516 29.214309 6.285755 4.978029 0.823651 13.023072 1.470289 15.002723-1.166838 5.866704-7.821068 10.906145-4.04239 16.538037-1.221026 6.686742 3.345177 12.947209 7.933056 19.995202 10.057207 8.269019 2.485402 17.300275 4.483116 25.811331 3.92679 26.439907-1.737614 52.738926-5.563254 79.182445-7.094955 25.182756-1.452226 47.789798-7.051605 62.033895-29.264884 5.646342-8.800056 13.90091-11.574458 23.166979-13.210922 8.092006-1.430551 16.263487-2.626289 24.449418-3.359627 13.998448-1.253538 24.341043-7.351443 32.960474-18.524914 9.674282-12.531772 20.042165-25.153856 32.433049-34.929288 17.224413-13.579397 38.689903-19.316052 60.379369-23.232005 12.354759-2.232527 23.632992-6.419417 30.980823-17.079913 6.16293-8.944557 11.924871-18.138376 17.863826-27.220207 0.032513-0.708051 0.07225-1.412489 0.10115-2.120539-8.662781-11.917646-17.1341-23.96173-26.031694-35.698751C885.164298 271.36578 880.395795 264.45145 879.994807 253.20211700000004L879.994807 253.20211700000004zM511.996387 886.134255C234.671784 886.134255 9.862132 661.317378 9.862132 384c0-277.324603 224.809652-502.134255 502.134255-502.134255S1014.137868 106.67539699999998 1014.137868 384C1014.137868 661.317378 789.320991 886.134255 511.996387 886.134255L511.996387 886.134255zM879.994807 253.20211700000004c-0.364863-10.14752-8.399069-20.45399-14.341636-29.922359-6.946843-11.072321-15.472349-21.183716-22.961067-31.941748-9.526169-13.666098-23.073054-44.361532-26.374882-47.66336-3.673915-3.659465-8.536344-6.516955-13.359035-8.698906-44.903408-20.327552-75.699993-56.680167-103.689663-93.773344-28.361758-37.562803-60.028956-69.511776-101.092274-93.253143-9.826007-5.678854-16.65725-16.292387-24.929881-24.56863-3.027277-3.023665-5.982304-6.224342-9.439469-8.713356-9.95967-7.20333-20.46844-3.511353-20.403415 8.456869 0.126438 22.704579 0.184238 45.784859 4.284428 68.008975 7.340605 39.820617 18.062513 79.052395 26.551894 118.685162 3.514965 16.407987 5.624667 33.188062 7.094955 49.899499 1.296888 14.789586-7.495943 25.124956-19.110139 33.397587-0.859776 0.610513-1.835151 1.159613-2.84304 1.473901-34.083962 10.461808-50.560587 38.260016-68.074 65.31766-8.301531 12.820772-16.147887 25.468144-31.576886 33.224187-13.355422 6.701192-13.171185 23.84613-18.727214 36.572977-11.975446 27.451408 8.558019 42.996006 22.332491 60.809257 10.216157 13.225372 21.653341 25.583744 33.061624 37.869865 5.664404 6.101517 3.959303 10.39317-1.333013 15.111099-10.848345 9.67067-27.31052 9.349157-38.892203-0.1156-2.196402-1.799026-7.355055-2.160277-10.071657-0.932026-5.780004 2.615452-10.602695 7.163593-16.270712 10.10417-8.261794 4.288041-17.051012 7.604318-25.334481 11.856234-3.352402 1.715939-6.574755 4.353066-8.803669 7.329768-6.76983 9.031257-13.015847 18.430988-19.471389 27.693445-5.288704 7.604318-12.795484 12.358372-21.942341 9.94522-9.168532-2.416764-16.491075-0.36125-22.997192 5.006929-11.144571 9.186594-23.278967 12.264446-37.866253 10.23422-20.692415-2.879165-39.188429 5.910054-52.977351 18.774176-9.190207 8.568856-12.015184 23.795555-17.238863 36.218952-2.647964 6.27853-4.309716 12.958047-6.936005 21.035603-9.880195-8.489381-16.552487-3.460778-23.018867 1.665364-4.475891 3.547478-8.276244 7.976406-12.99056 11.151796-20.551528 13.832273-17.993876 8.135356-19.388302 6.92878-33.484287 5.017766-18.340676 53.869639 10.790545 81.97491 96.334608 91.078417 162.782982 115.834897 254.656149 133.742073 110.950794 20.537078 185.830749 6.751767 253.633811-22.823792-11.567233-9.421407-23.896705-14.926861-37.656728-15.244761-23.93283-0.570775-45.784859-7.933056-67.033599-17.621788-6.766217-3.081465-15.136386-6.097904-18.828364-11.643096-7.727143-11.617809-19.630339-15.457899-30.839935-21.519678-11.115671-6.014817-22.274691-12.997785-31.056685-21.797841-8.615819-8.619431-12.589572-21.830353-21.541353-29.922359-20.363677-18.384026-31.302335-38.758541-24.536118-66.264136 0.624963-2.543202-2.153052-5.902829-3.356015-8.886757-2.846652 1.813476-6.56753 3.020052-8.377394 5.537967-7.00103 9.732082-14.020123 19.536414-19.825415 29.958484-5.924504 10.62437-14.843773 12.127171-25.482594 10.483483-21.541353-3.323502-33.47345-16.910125-41.406505-35.767389-4.244691-10.093332-3.684753-18.066126 4.226628-25.775206 19.630339-19.135427 39.332929-38.213053 58.457518-57.818105 3.872603-3.97014 8.355719-10.81222 7.369505-15.237536-3.312665-14.912411 1.376364-26.779482 9.847682-38.418966 2.84304-3.890665 3.399365-9.417794 6.372455-13.171185 2.611839-3.283765 7.39118-7.50678 10.758033-7.14553 9.847682 1.051238 19.384689 4.656516 29.214309 6.285755 4.978029 0.823651 13.023072 1.470289 15.002723-1.166838 5.866704-7.821068 10.906145-4.04239 16.538037-1.221026 6.686742 3.345177 12.947209 7.933056 19.995202 10.057207 8.269019 2.485402 17.300275 4.483116 25.811331 3.92679 26.439907-1.737614 52.738926-5.563254 79.182445-7.094955 25.182756-1.452226 47.789798-7.051605 62.033895-29.264884 5.646342-8.800056 13.90091-11.574458 23.166979-13.210922 8.092006-1.430551 16.263487-2.626289 24.449418-3.359627 13.998448-1.253538 24.341043-7.351443 32.960474-18.524914 9.674282-12.531772 20.042165-25.153856 32.433049-34.929288 17.224413-13.579397 38.689903-19.316052 60.379369-23.232005 12.354759-2.232527 23.632992-6.419417 30.980823-17.079913 6.16293-8.944557 11.924871-18.138376 17.863826-27.220207 0.032513-0.708051 0.07225-1.412489 0.10115-2.120539-8.662781-11.917646-17.1341-23.96173-26.031694-35.698751C885.164298 271.36578 880.395795 264.45145 879.994807 253.20211700000004L879.994807 253.20211700000004zM879.994807 253.20211700000004"  horiz-adv-x="1024" />

    
    <glyph glyph-name="marker" unicode="&#59279;" d="M527.67184213 846.8611072C329.89293227 846.8611072 169.02826667 688.80575147 169.02826667 494.5166336c0-152.3744768 220.85522773-448.48687787 315.86604373-573.40286293 9.99860907-13.1792896 26.0079616-21.0108416 42.778624-21.0108416 16.7313408 0 32.768 7.831552 42.80593067 21.0108416 94.97695573 124.91598507 315.9359488 420.99124907 315.9359488 573.40286293C886.4137216 688.80575147 725.48570453 846.8611072 527.67184213 846.8611072zM527.67184213 366.46038187c-84.52287147 0-153.2788736 67.44091307-153.2788736 150.3920128 0 82.96311467 68.75600213 150.4804864 153.2788736 150.4804864 84.51631787 0 153.23845973-67.5119104 153.23845974-150.4804864C680.91139413 433.90129493 612.18925227 366.46038187 527.67184213 366.46038187z"  horiz-adv-x="1024" />

    
    <glyph glyph-name="arrow-right" unicode="&#59114;" d="M199.553918 23.476946999999996l0 718.53082c0 39.763632 31.909757 71.922053 71.675436 71.922053 18.485003 0 35.205826-7.095605 47.872311-18.486026L793.22705601 440.114019c31.400151-23.810289 37.993313-68.641333 14.18302399-100.29731-4.052293-5.570879-8.873088-10.384511-14.190187-14.18302399L314.041416-33.76475500000004c-31.407314-23.547299-76.479859-17.217127-100.041484 14.436804-9.881045 12.922311-14.43885 27.864628-14.43884999 42.804898l0 0L199.553918 23.476946999999996zM199.553918 23.476946999999996"  horiz-adv-x="1024" />

    
    <glyph glyph-name="arrow-left" unicode="&#58882;" d="M824.446082 744.523053l0-718.53082c0-39.763632-31.909757-71.922053-71.675436-71.922053-18.485003 0-35.205826 7.095605-47.872311 18.486026L230.77294399 327.885981c-31.400151 23.810289-37.993313 68.641333-14.18302399 100.29731 4.052293 5.570879 8.873088 10.384511 14.190187 14.18302399L709.958584 801.764755c31.407314 23.547299 76.479859 17.217127 100.041484-14.436804 9.881045-12.922311 14.43885-27.864628 14.43884999-42.804898l0 0L824.446082 744.523053zM824.446082 744.523053"  horiz-adv-x="1024" />

    
    <glyph glyph-name="arrow-up" unicode="&#58902;" d="M895.240451 117.03425100000004l-383.063419 383.064442-388.096039-388.097062-0.033769 0.07060799c-13.137205-12.709463-31.024597-20.529569-50.731428-20.52956899-40.376593 0-73.11215799 32.736589-73.112158 73.115228 0 19.705807 7.819083 37.591153 20.528546 50.730405l-0.035816 0.034792L459.377502 654.109346l0.035816-0.035816c13.28149101 13.779841 31.91589701 22.3838 52.585659 22.3838 0.07163101 0 0.106424 0 0.178055 0 0.072655 0 0.10847 0 0.144286 0 20.66976201 0 39.341007-8.603959 52.622498-22.3838l0.034792 0.035816L1003.662813 215.42616499999997l-0.179079-0.180102c12.56619999-13.139252 20.313651-30.950919 20.313651-50.587142 0-40.378639-32.736589-73.115228-73.114205-73.115228C928.514275 91.54471699999999 908.66520501 101.43292399999996 895.240451 117.03425100000004z"  horiz-adv-x="1024" />

    
    <glyph glyph-name="arrow-down" unicode="&#58881;" d="M128.759549 650.965749l383.063419-383.064442 388.096039 388.097062 0.033769-0.07060799c13.137205 12.709463 31.024597 20.529569 50.731428 20.52956899 40.376593 0 73.11215799-32.736589 73.112158-73.115228 0-19.705807-7.819083-37.591153-20.528546-50.730405l0.035816-0.034792L564.622498 113.89065400000004l-0.035816 0.035816c-13.28149101-13.779841-31.91589701-22.3838-52.585659-22.3838-0.07163101 0-0.106424 0-0.178055 0-0.072655 0-0.10847 0-0.144286 0-20.66976201 0-39.341007 8.603959-52.622498 22.3838l-0.034792-0.035816L20.337187 552.5738349999999l0.179079 0.180102c-12.56619999 13.139252-20.313651 30.950919-20.313651 50.587142 0 40.378639 32.736589 73.115228 73.114205 73.115228C95.485725 676.455283 115.33479499 666.567076 128.759549 650.965749z"  horiz-adv-x="1024" />

    
    <glyph glyph-name="search" unicode="&#59035;" d="M699.352 268.428c75.975 84.705 109.155 204.861 77.29 322.631C726.637 775.85 535.621 885.51 350.833 835.51c-184.788-50-294.448-241.016-244.451-425.806 50.003-184.79 241.018-294.446 425.809-244.446 39.095 10.58 74.57 27.765 106.14 49.59l231.346-262.531c10.575-11.985 26.64-16.255 41.095-12.34 5.815 1.57 11.385 4.465 16.215 8.72 16.815 14.835 18.45 40.48 3.615 57.31L699.352 268.428zM184.776 430.916c-38.303 141.563 45.705 287.896 187.273 326.203 141.563 38.303 287.898-45.705 326.198-187.271 38.305-141.563-45.705-287.896-187.271-326.201C369.413 205.34299999999996 223.081 289.34799999999996 184.776 430.916z"  horiz-adv-x="1024" />

    
    <glyph glyph-name="painter" unicode="&#58880;" d="M287.744 632.832q-27.648-1.024-54.272-1.024l-84.992 0q-18.432 0-37.376-6.144t-33.28-18.944-23.552-32.768-9.216-46.592l0-77.824 933.888 0 0 41.984q0 16.384-0.512 30.72t-0.512 18.432q0 13.312-5.12 29.696t-17.408 30.208-32.256 23.04-50.688 9.216l-136.192 0 0-99.328-448.512 0 0 99.328zM977.92 394.24l0-53.248q0-23.552 0.512-53.248t0.512-59.392-10.752-48.64-26.624-30.72-33.792-16.384-32.256-4.608q-14.336-1.024-30.208-0.512t-30.208 0.512l-32.768 0-46.08 131.072-449.536 0-45.056-131.072-29.696 0-34.816 0q-20.48 0-46.08 1.024-25.6 0-41.984 9.728t-26.112 23.552-13.824 30.208-4.096 30.72l0 171.008 932.864 0zM166.912 329.72799999999995q-12.288 0-21.504-8.704t-9.216-22.016 9.216-22.016 21.504-8.704q13.312 0 22.528 8.704t9.216 22.016-9.216 22.016-22.528 8.704zM323.584 202.75199999999995q-8.192-26.624-14.336-49.152-5.12-19.456-10.752-37.888t-7.68-25.6-3.072-15.36 1.024-14.848 9.728-10.752 22.016-4.096l37.888 0 68.608 0 82.944 0 81.92 0 65.536 0 36.864 0q23.552 0 34.816 12.288t2.048 38.912q-5.12 13.312-9.728 31.232t-9.728 35.328q-5.12 19.456-11.264 39.936l-376.832 0zM344.064 586.752l0 233.472q0 11.264 2.56 23.552t10.24 22.016 20.992 15.872 34.816 6.144l192.512 0q31.744 0 52.736-14.848t20.992-53.76l0-232.448-334.848 0z"  horiz-adv-x="1024" />

    
    <glyph glyph-name="water" unicode="&#59037;" d="M128 810.666667l85.333333-778.666667c4.266667-42.666667 40.533333-74.666667 85.333333-74.666667l426.666667 0c42.666667 0 78.933333 32 85.333333 74.666667L896 810.666667 128 810.666667zM512 85.33333300000004c-70.4 0-128 57.6-128 128 0 85.333333 128 230.4 128 230.4S640 298.66666699999996 640 213.33333300000004C640 142.93333299999995 582.4 85.33333300000004 512 85.33333300000004zM782.933333 554.666667L243.2 554.666667l-19.2 170.666667 578.133333 0L782.933333 554.666667z"  horiz-adv-x="1024" />

    
    <glyph glyph-name="closet" unicode="&#59478;" d="M478.281549 834.656887L156.032194 834.656887c-8.810666 0-15.978926-7.009647-15.978926-15.575744l0-832.452429c0-8.568143 7.167237-15.57472 15.978926-15.57472l78.600149 0 0-32.716122c0-3.119037 2.642177-5.682419 5.845125-5.682419l47.886637 0c3.243881 0 5.848195 2.563382 5.848195 5.682419l0 32.716122 184.067202 0L478.279502 834.656887 478.281549 834.656887 478.281549 834.656887zM434.076768 393.287527c0-9.990538-8.369621-18.179035-18.621103-18.179035l-15.095813 0c-10.250458 0-18.657942 8.188496-18.657942 18.179035L381.70191 524.8591220000001c0 10.032494 8.407484 18.22099 18.657942 18.22099l15.095813 0c10.251481 0 18.621103-8.188496 18.621103-18.22099L434.076768 393.287527 434.076768 393.287527zM539.863093-28.94498299999998l184.067202 0 0-32.716122c0-3.119037 2.605338-5.682419 5.846148-5.682419l47.848775 0c3.244904 0 5.845125 2.563382 5.845125 5.682419l0 32.716122 78.643128 0c8.769734 0 15.974833 7.006578 15.974833 15.57472L878.088304 819.082166c0 8.566096-7.205099 15.575744-15.974833 15.575744l-322.249355 0L539.864116-28.94498299999998 539.863093-28.94498299999998 539.863093-28.94498299999998zM584.069921 524.8591220000001c0 10.032494 8.370645 18.22099 18.62008 18.22099l15.092743 0c10.250458 0 18.656919-8.188496 18.656919-18.22099L636.439662 393.287527c0-9.990538-8.407484-18.179035-18.656919-18.179035L602.69 375.10849199999996c-10.250458 0-18.62008 8.188496-18.62008 18.179035L584.069921 524.8591220000001 584.069921 524.8591220000001z"  horiz-adv-x="1024" />

    
    <glyph glyph-name="coffee" unicode="&#59255;" d="M772.267 524.8H76.8c-34.133 0-64-29.867-64-68.267V281.6c0-4.267 0-46.933 12.8-106.667 12.8-51.2 38.4-132.266 98.133-192C200.533-89.60000000000002 298.667-128 430.933-128S665.6-89.60000000000002 733.867-12.799999999999955c59.733 59.733 85.333 136.533 93.866 187.733 8.534 51.2 8.534 89.6 8.534 98.134V456.533c4.266 38.4-25.6 68.267-64 68.267zM840.533 396.8h-38.4v-64h38.4c55.467 0 98.134 4.267 98.134-42.667V204.79999999999995c0-46.933-46.934-89.6-98.134-89.6H780.8l-25.6-64h85.333c93.867 0 174.934 68.267 174.934 153.6v85.333c0 81.067-34.134 106.667-174.934 106.667zM452.267 896c-12.8-46.933-34.134-98.133-68.267-149.333S366.933 640 439.467 558.933c0 59.734 21.333 106.667 51.2 140.8C524.8 729.6 512 802.133 452.267 896z"  horiz-adv-x="1024" />

    
    <glyph glyph-name="vendor" unicode="&#59262;" d="M861.867-51.200000000000045h-12.8v-51.2c0-17.067-12.8-25.6-29.867-25.6h-64c-17.067 0-29.867 12.8-29.867 25.6v51.2H294.4v-51.2c0-12.8-8.533-25.6-25.6-25.6h-64c-17.067 0-29.867 12.8-29.867 25.6v51.2h-12.8c-46.933 0-81.066 38.4-81.066 76.8V819.2c0 42.667 38.4 76.8 81.066 76.8H857.6c46.933 0 81.067-38.4 81.067-76.8v-785.067c4.266-46.933-34.134-85.333-76.8-85.333zM281.6 98.13300000000004c0-17.066 12.8-25.6 29.867-25.6h401.066c17.067 0 29.867 12.8 29.867 25.6v51.2c0 17.067-12.8 25.6-29.867 25.6H311.467c-17.067 0-29.867-12.8-29.867-25.6v-51.2z m-51.2 187.734h554.667c17.066 0 29.866 12.8 29.866 25.6V512H204.8v-200.533c0-12.8 8.533-25.6 25.6-25.6z m550.4 477.866H226.133c-12.8 0-21.333-12.8-21.333-25.6v-183.466h605.867V738.133c-4.267 12.8-17.067 25.6-29.867 25.6zM712.533 588.8h-64c-8.533 0-12.8 4.267-12.8 12.8V712.533c0 8.534 4.267 12.8 12.8 12.8h64c8.534 0 12.8-4.266 12.8-12.8v-106.666c0-8.534-4.266-17.067-12.8-17.067z m-170.666 0h-72.534c-8.533 0-12.8 4.267-12.8 12.8V712.533c4.267 8.534 4.267 12.8 12.8 12.8h64c8.534 0 12.8-4.266 12.8-12.8v-106.666c8.534-8.534 0-17.067-4.266-17.067z m-179.2 0H294.4c-8.533 0-12.8 4.267-12.8 12.8V712.533c0 8.534 4.267 12.8 12.8 12.8h64c8.533 0 12.8-4.266 12.8-12.8v-106.666c4.267-8.534 0-17.067-8.533-17.067zM294.4 456.533h64c8.533 0 12.8-4.266 12.8-12.8v-106.666c0-8.534-4.267-12.8-12.8-12.8h-64c-8.533 0-12.8 4.266-12.8 12.8V443.733c0 4.267 8.533 12.8 12.8 12.8z m174.933 0h64c8.534 0 12.8-4.266 12.8-12.8v-106.666c0-8.534-4.266-12.8-12.8-12.8h-64c-8.533 0-12.8 4.266-12.8 12.8V443.733c4.267 4.267 4.267 12.8 12.8 12.8z m179.2 0h64c8.534 0 12.8-4.266 12.8-12.8v-106.666c0-8.534-4.266-12.8-12.8-12.8h-64c-8.533 0-12.8 4.266-12.8 12.8V443.733c0 4.267 4.267 12.8 12.8 12.8z"  horiz-adv-x="1024" />

    
    <glyph glyph-name="dibiao" unicode="&#58950;" d="M934.879884 471.051454a424.948546 424.948546 0 0 1-849.897092 0 417.312453 417.312453 0 0 1 90.105891-260.390753l334.842655-338.660701 334.46085 338.660701a417.312453 417.312453 0 0 1 90.487696 259.627144z"  horiz-adv-x="1024" />

    
    <glyph glyph-name="user" unicode="&#58888;" d="M691.2 326.4c81.067 55.467 134.4 149.333 134.4 256C825.6 755.2 684.8 896 512 896S200.533 755.2 200.533 584.533c0-106.666 53.334-200.533 134.4-256C151.467 256 23.467 78.933 23.467-128h87.466c0 204.8 155.734 375.467 354.134 398.933 2.133 0 55.466 4.267 100.266 0h4.267c194.133-27.733 343.467-194.133 343.467-396.8h89.6C1000.533 78.933 872.533 256 691.2 326.4zM512 349.867c-130.133 0-234.667 104.533-234.667 234.666C277.333 714.667 381.867 819.2 512 819.2c130.133 0 234.667-104.533 234.667-234.667 0-130.133-104.534-234.666-234.667-234.666z"  horiz-adv-x="1024" />

    
    <glyph glyph-name="map" unicode="&#59071;" d="M682.666667-85.333333c-8.533333 0-12.8 0-17.066667 4.266666L341.333333 81.066667l-277.333333-157.866667c-12.8-8.533333-29.866667-8.533333-42.666667 0-12.8 4.266667-21.333333 17.066667-21.333333 34.133333V640c0 17.066667 8.533333 29.866667 21.333333 38.4l298.666667 170.666667c12.8 4.266667 25.6 4.266667 38.4 0L682.666667 686.933333l277.333333 157.866667c12.8 8.533333 29.866667 8.533333 42.666667 0 12.8-4.266667 21.333333-17.066667 21.333333-34.133333v-682.666667c0-17.066667-8.533333-29.866667-21.333333-38.4l-298.666667-170.666667c-8.533333-4.266667-12.8-4.266667-21.333333-4.266666z m-341.333334 256c8.533333 0 12.8 0 17.066667-4.266667l320-162.133333 256 145.066666V738.133333l-234.666667-132.266666c-12.8-8.533333-25.6-8.533333-38.4 0L341.333333 763.733333 85.333333 614.4v-584.533333l234.666667 132.266666c8.533333 8.533333 12.8 8.533333 21.333333 8.533334zM341.333333 85.333333c-25.6 0-42.666667 17.066667-42.666666 42.666667V810.666667c0 25.6 17.066667 42.666667 42.666666 42.666666s42.666667-17.066667 42.666667-42.666666v-682.666667c0-25.6-17.066667-42.666667-42.666667-42.666667zM682.666667-85.333333c-25.6 0-42.666667 17.066667-42.666667 42.666666V640c0 25.6 17.066667 42.666667 42.666667 42.666667s42.666667-17.066667 42.666666-42.666667v-682.666667c0-25.6-17.066667-42.666667-42.666666-42.666666z"  horiz-adv-x="1024" />

    


  </font>
</defs>
</svg>
