<?xml version="1.0" standalone="no"?><!DOCTYPE svg PUBLIC "-//W3C//DTD SVG 1.1//EN" "http://www.w3.org/Graphics/SVG/1.1/DTD/svg11.dtd"><svg t="1565259699629" class="icon" viewBox="0 0 1024 1024" version="1.1" xmlns="http://www.w3.org/2000/svg" p-id="2651" xmlns:xlink="http://www.w3.org/1999/xlink" width="200" height="200"><defs><style type="text/css"></style></defs><path d="M526.692352 78.067712C341.274624 78.067712 190.464 226.244608 190.464 408.390656c0 142.851072 207.051776 420.456448 296.124416 537.565184 9.373696 12.355584 24.382464 19.697664 40.10496 19.697664 15.685632 0 30.72-7.34208 40.13056-19.697664 89.040896-117.108736 296.189952-394.679296 296.189952-537.565184C863.012864 226.244608 712.142848 78.067712 526.692352 78.067712zM526.692352 528.443392c-79.240192 0-143.698944-63.225856-143.698944-140.992512 0-77.77792 64.458752-141.075456 143.698944-141.075456 79.234048 0 143.661056 63.292416 143.661056 141.075456C670.354432 465.217536 605.927424 528.443392 526.692352 528.443392z" p-id="2652"></path></svg>